<svg width="110" height="135" viewBox="0 0 110 135" fill="none" xmlns="http://www.w3.org/2000/svg">
<path fill-rule="evenodd" clip-rule="evenodd" d="M77.3663 0.620566C72.0705 2.03039 67.4807 4.6603 63.5218 8.55318C59.5381 12.4705 57.1522 16.3847 55.6265 21.5056C55.0394 23.4768 54.9325 24.3602 54.9012 27.5018L54.8649 31.1862L55.9176 31.276C57.6111 31.4207 61.5445 30.7867 63.717 30.0193C66.9794 28.8663 69.2934 27.3049 72.5034 24.0905C78.9254 17.6596 81.64 11.7494 82.0279 3.35548L82.183 0L80.8931 0.0126324C80.1836 0.0194749 78.5967 0.293177 77.3663 0.620566ZM75.9189 32.6258C72.645 33.0932 68.1565 34.4596 60.7863 37.2319C57.9985 38.2806 57.215 38.4685 55.6505 38.4646C53.7185 38.4598 53.5435 38.4069 45.5222 35.4049C40.3316 33.4621 37.3348 32.8242 33.2846 32.7997C31.4029 32.7884 29.1527 32.9311 28.2843 33.1166C13.3109 36.3165 2.86368 48.3747 0.4001 65.301C-0.0683513 68.5199 -0.140198 76.0159 0.262986 79.6104C2.0402 95.4537 7.91769 110.056 17.5823 122.639C21.972 128.355 25.6391 131.713 29.4685 133.521C31.5771 134.517 31.8716 134.584 34.6004 134.682C38.0236 134.805 39.7868 134.399 46.3117 131.983C51.871 129.925 54.5396 129.391 58.4178 129.564C61.9293 129.721 63.9478 130.213 68.9682 132.133C73.4369 133.843 75.7554 134.435 78.7775 134.637C82.7983 134.905 86.2608 133.851 89.604 131.34C94.5611 127.616 102.25 116.951 106.577 107.795C108.184 104.395 110 99.7824 110 99.1006C110 98.8708 109.294 98.3418 108.355 97.8681C102.254 94.7895 96.8392 89.2018 94.4919 83.5632C94.0174 82.4237 93.3255 80.3575 92.9539 78.9719C92.3383 76.6746 92.2778 75.9875 92.267 71.1888C92.256 66.3158 92.306 65.7387 92.9407 63.412C93.7113 60.5862 94.9835 57.7658 96.5791 55.3456C98.0605 53.0984 101.826 49.3418 104.418 47.5259L106.576 46.014L105.737 44.7847C100.816 37.5716 91.1688 32.8218 80.7876 32.5018C78.9783 32.446 76.7873 32.5018 75.9189 32.6258Z" fill="black"/>
<path fill-rule="evenodd" clip-rule="evenodd" d="M77.3663 0.620566C72.0705 2.03039 67.4807 4.6603 63.5218 8.55318C59.5381 12.4705 57.1522 16.3847 55.6265 21.5056C55.0394 23.4768 54.9325 24.3602 54.9012 27.5018L54.8649 31.1862L55.9176 31.276C57.6111 31.4207 61.5445 30.7867 63.717 30.0193C66.9794 28.8663 69.2934 27.3049 72.5034 24.0905C78.9254 17.6596 81.64 11.7494 82.0279 3.35548L82.183 0L80.8931 0.0126324C80.1836 0.0194749 78.5967 0.293177 77.3663 0.620566ZM75.9189 32.6258C72.645 33.0932 68.1565 34.4596 60.7863 37.2319C57.9985 38.2806 57.215 38.4685 55.6505 38.4646C53.7185 38.4598 53.5435 38.4069 45.5222 35.4049C40.3316 33.4621 37.3348 32.8242 33.2846 32.7997C31.4029 32.7884 29.1527 32.9311 28.2843 33.1166C13.3109 36.3165 2.86368 48.3747 0.4001 65.301C-0.0683513 68.5199 -0.140198 76.0159 0.262986 79.6104C2.0402 95.4537 7.91769 110.056 17.5823 122.639C21.972 128.355 25.6391 131.713 29.4685 133.521C31.5771 134.517 31.8716 134.584 34.6004 134.682C38.0236 134.805 39.7868 134.399 46.3117 131.983C51.871 129.925 54.5396 129.391 58.4178 129.564C61.9293 129.721 63.9478 130.213 68.9682 132.133C73.4369 133.843 75.7554 134.435 78.7775 134.637C82.7983 134.905 86.2608 133.851 89.604 131.34C94.5611 127.616 102.25 116.951 106.577 107.795C108.184 104.395 110 99.7824 110 99.1006C110 98.8708 109.294 98.3418 108.355 97.8681C102.254 94.7895 96.8392 89.2018 94.4919 83.5632C94.0174 82.4237 93.3255 80.3575 92.9539 78.9719C92.3383 76.6746 92.2778 75.9875 92.267 71.1888C92.256 66.3158 92.306 65.7387 92.9407 63.412C93.7113 60.5862 94.9835 57.7658 96.5791 55.3456C98.0605 53.0984 101.826 49.3418 104.418 47.5259L106.576 46.014L105.737 44.7847C100.816 37.5716 91.1688 32.8218 80.7876 32.5018C78.9783 32.446 76.7873 32.5018 75.9189 32.6258Z" fill="black"/>
<path fill-rule="evenodd" clip-rule="evenodd" d="M77.3663 0.620566C72.0705 2.03039 67.4807 4.6603 63.5218 8.55318C59.5381 12.4705 57.1522 16.3847 55.6265 21.5056C55.0394 23.4768 54.9325 24.3602 54.9012 27.5018L54.8649 31.1862L55.9176 31.276C57.6111 31.4207 61.5445 30.7867 63.717 30.0193C66.9794 28.8663 69.2934 27.3049 72.5034 24.0905C78.9254 17.6596 81.64 11.7494 82.0279 3.35548L82.183 0L80.8931 0.0126324C80.1836 0.0194749 78.5967 0.293177 77.3663 0.620566ZM75.9189 32.6258C72.645 33.0932 68.1565 34.4596 60.7863 37.2319C57.9985 38.2806 57.215 38.4685 55.6505 38.4646C53.7185 38.4598 53.5435 38.4069 45.5222 35.4049C40.3316 33.4621 37.3348 32.8242 33.2846 32.7997C31.4029 32.7884 29.1527 32.9311 28.2843 33.1166C13.3109 36.3165 2.86368 48.3747 0.4001 65.301C-0.0683513 68.5199 -0.140198 76.0159 0.262986 79.6104C2.0402 95.4537 7.91769 110.056 17.5823 122.639C21.972 128.355 25.6391 131.713 29.4685 133.521C31.5771 134.517 31.8716 134.584 34.6004 134.682C38.0236 134.805 39.7868 134.399 46.3117 131.983C51.871 129.925 54.5396 129.391 58.4178 129.564C61.9293 129.721 63.9478 130.213 68.9682 132.133C73.4369 133.843 75.7554 134.435 78.7775 134.637C82.7983 134.905 86.2608 133.851 89.604 131.34C94.5611 127.616 102.25 116.951 106.577 107.795C108.184 104.395 110 99.7824 110 99.1006C110 98.8708 109.294 98.3418 108.355 97.8681C102.254 94.7895 96.8392 89.2018 94.4919 83.5632C94.0174 82.4237 93.3255 80.3575 92.9539 78.9719C92.3383 76.6746 92.2778 75.9875 92.267 71.1888C92.256 66.3158 92.306 65.7387 92.9407 63.412C93.7113 60.5862 94.9835 57.7658 96.5791 55.3456C98.0605 53.0984 101.826 49.3418 104.418 47.5259L106.576 46.014L105.737 44.7847C100.816 37.5716 91.1688 32.8218 80.7876 32.5018C78.9783 32.446 76.7873 32.5018 75.9189 32.6258Z" fill="black"/>
<path fill-rule="evenodd" clip-rule="evenodd" d="M77.3663 0.620566C72.0705 2.03039 67.4807 4.6603 63.5218 8.55318C59.5381 12.4705 57.1522 16.3847 55.6265 21.5056C55.0394 23.4768 54.9325 24.3602 54.9012 27.5018L54.8649 31.1862L55.9176 31.276C57.6111 31.4207 61.5445 30.7867 63.717 30.0193C66.9794 28.8663 69.2934 27.3049 72.5034 24.0905C78.9254 17.6596 81.64 11.7494 82.0279 3.35548L82.183 0L80.8931 0.0126324C80.1836 0.0194749 78.5967 0.293177 77.3663 0.620566ZM75.9189 32.6258C72.645 33.0932 68.1565 34.4596 60.7863 37.2319C57.9985 38.2806 57.215 38.4685 55.6505 38.4646C53.7185 38.4598 53.5435 38.4069 45.5222 35.4049C40.3316 33.4621 37.3348 32.8242 33.2846 32.7997C31.4029 32.7884 29.1527 32.9311 28.2843 33.1166C13.3109 36.3165 2.86368 48.3747 0.4001 65.301C-0.0683513 68.5199 -0.140198 76.0159 0.262986 79.6104C2.0402 95.4537 7.91769 110.056 17.5823 122.639C21.972 128.355 25.6391 131.713 29.4685 133.521C31.5771 134.517 31.8716 134.584 34.6004 134.682C38.0236 134.805 39.7868 134.399 46.3117 131.983C51.871 129.925 54.5396 129.391 58.4178 129.564C61.9293 129.721 63.9478 130.213 68.9682 132.133C73.4369 133.843 75.7554 134.435 78.7775 134.637C82.7983 134.905 86.2608 133.851 89.604 131.34C94.5611 127.616 102.25 116.951 106.577 107.795C108.184 104.395 110 99.7824 110 99.1006C110 98.8708 109.294 98.3418 108.355 97.8681C102.254 94.7895 96.8392 89.2018 94.4919 83.5632C94.0174 82.4237 93.3255 80.3575 92.9539 78.9719C92.3383 76.6746 92.2778 75.9875 92.267 71.1888C92.256 66.3158 92.306 65.7387 92.9407 63.412C93.7113 60.5862 94.9835 57.7658 96.5791 55.3456C98.0605 53.0984 101.826 49.3418 104.418 47.5259L106.576 46.014L105.737 44.7847C100.816 37.5716 91.1688 32.8218 80.7876 32.5018C78.9783 32.446 76.7873 32.5018 75.9189 32.6258Z" fill="black"/>
<path fill-rule="evenodd" clip-rule="evenodd" d="M77.3663 0.620566C72.0705 2.03039 67.4807 4.6603 63.5218 8.55318C59.5381 12.4705 57.1522 16.3847 55.6265 21.5056C55.0394 23.4768 54.9325 24.3602 54.9012 27.5018L54.8649 31.1862L55.9176 31.276C57.6111 31.4207 61.5445 30.7867 63.717 30.0193C66.9794 28.8663 69.2934 27.3049 72.5034 24.0905C78.9254 17.6596 81.64 11.7494 82.0279 3.35548L82.183 0L80.8931 0.0126324C80.1836 0.0194749 78.5967 0.293177 77.3663 0.620566ZM75.9189 32.6258C72.645 33.0932 68.1565 34.4596 60.7863 37.2319C57.9985 38.2806 57.215 38.4685 55.6505 38.4646C53.7185 38.4598 53.5435 38.4069 45.5222 35.4049C40.3316 33.4621 37.3348 32.8242 33.2846 32.7997C31.4029 32.7884 29.1527 32.9311 28.2843 33.1166C13.3109 36.3165 2.86368 48.3747 0.4001 65.301C-0.0683513 68.5199 -0.140198 76.0159 0.262986 79.6104C2.0402 95.4537 7.91769 110.056 17.5823 122.639C21.972 128.355 25.6391 131.713 29.4685 133.521C31.5771 134.517 31.8716 134.584 34.6004 134.682C38.0236 134.805 39.7868 134.399 46.3117 131.983C51.871 129.925 54.5396 129.391 58.4178 129.564C61.9293 129.721 63.9478 130.213 68.9682 132.133C73.4369 133.843 75.7554 134.435 78.7775 134.637C82.7983 134.905 86.2608 133.851 89.604 131.34C94.5611 127.616 102.25 116.951 106.577 107.795C108.184 104.395 110 99.7824 110 99.1006C110 98.8708 109.294 98.3418 108.355 97.8681C102.254 94.7895 96.8392 89.2018 94.4919 83.5632C94.0174 82.4237 93.3255 80.3575 92.9539 78.9719C92.3383 76.6746 92.2778 75.9875 92.267 71.1888C92.256 66.3158 92.306 65.7387 92.9407 63.412C93.7113 60.5862 94.9835 57.7658 96.5791 55.3456C98.0605 53.0984 101.826 49.3418 104.418 47.5259L106.576 46.014L105.737 44.7847C100.816 37.5716 91.1688 32.8218 80.7876 32.5018C78.9783 32.446 76.7873 32.5018 75.9189 32.6258Z" fill="black"/>
<path fill-rule="evenodd" clip-rule="evenodd" d="M77.3663 0.620566C72.0705 2.03039 67.4807 4.6603 63.5218 8.55318C59.5381 12.4705 57.1522 16.3847 55.6265 21.5056C55.0394 23.4768 54.9325 24.3602 54.9012 27.5018L54.8649 31.1862L55.9176 31.276C57.6111 31.4207 61.5445 30.7867 63.717 30.0193C66.9794 28.8663 69.2934 27.3049 72.5034 24.0905C78.9254 17.6596 81.64 11.7494 82.0279 3.35548L82.183 0L80.8931 0.0126324C80.1836 0.0194749 78.5967 0.293177 77.3663 0.620566ZM75.9189 32.6258C72.645 33.0932 68.1565 34.4596 60.7863 37.2319C57.9985 38.2806 57.215 38.4685 55.6505 38.4646C53.7185 38.4598 53.5435 38.4069 45.5222 35.4049C40.3316 33.4621 37.3348 32.8242 33.2846 32.7997C31.4029 32.7884 29.1527 32.9311 28.2843 33.1166C13.3109 36.3165 2.86368 48.3747 0.4001 65.301C-0.0683513 68.5199 -0.140198 76.0159 0.262986 79.6104C2.0402 95.4537 7.91769 110.056 17.5823 122.639C21.972 128.355 25.6391 131.713 29.4685 133.521C31.5771 134.517 31.8716 134.584 34.6004 134.682C38.0236 134.805 39.7868 134.399 46.3117 131.983C51.871 129.925 54.5396 129.391 58.4178 129.564C61.9293 129.721 63.9478 130.213 68.9682 132.133C73.4369 133.843 75.7554 134.435 78.7775 134.637C82.7983 134.905 86.2608 133.851 89.604 131.34C94.5611 127.616 102.25 116.951 106.577 107.795C108.184 104.395 110 99.7824 110 99.1006C110 98.8708 109.294 98.3418 108.355 97.8681C102.254 94.7895 96.8392 89.2018 94.4919 83.5632C94.0174 82.4237 93.3255 80.3575 92.9539 78.9719C92.3383 76.6746 92.2778 75.9875 92.267 71.1888C92.256 66.3158 92.306 65.7387 92.9407 63.412C93.7113 60.5862 94.9835 57.7658 96.5791 55.3456C98.0605 53.0984 101.826 49.3418 104.418 47.5259L106.576 46.014L105.737 44.7847C100.816 37.5716 91.1688 32.8218 80.7876 32.5018C78.9783 32.446 76.7873 32.5018 75.9189 32.6258Z" fill="black"/>
<path fill-rule="evenodd" clip-rule="evenodd" d="M77.3663 0.620566C72.0705 2.03039 67.4807 4.6603 63.5218 8.55318C59.5381 12.4705 57.1522 16.3847 55.6265 21.5056C55.0394 23.4768 54.9325 24.3602 54.9012 27.5018L54.8649 31.1862L55.9176 31.276C57.6111 31.4207 61.5445 30.7867 63.717 30.0193C66.9794 28.8663 69.2934 27.3049 72.5034 24.0905C78.9254 17.6596 81.64 11.7494 82.0279 3.35548L82.183 0L80.8931 0.0126324C80.1836 0.0194749 78.5967 0.293177 77.3663 0.620566ZM75.9189 32.6258C72.645 33.0932 68.1565 34.4596 60.7863 37.2319C57.9985 38.2806 57.215 38.4685 55.6505 38.4646C53.7185 38.4598 53.5435 38.4069 45.5222 35.4049C40.3316 33.4621 37.3348 32.8242 33.2846 32.7997C31.4029 32.7884 29.1527 32.9311 28.2843 33.1166C13.3109 36.3165 2.86368 48.3747 0.4001 65.301C-0.0683513 68.5199 -0.140198 76.0159 0.262986 79.6104C2.0402 95.4537 7.91769 110.056 17.5823 122.639C21.972 128.355 25.6391 131.713 29.4685 133.521C31.5771 134.517 31.8716 134.584 34.6004 134.682C38.0236 134.805 39.7868 134.399 46.3117 131.983C51.871 129.925 54.5396 129.391 58.4178 129.564C61.9293 129.721 63.9478 130.213 68.9682 132.133C73.4369 133.843 75.7554 134.435 78.7775 134.637C82.7983 134.905 86.2608 133.851 89.604 131.34C94.5611 127.616 102.25 116.951 106.577 107.795C108.184 104.395 110 99.7824 110 99.1006C110 98.8708 109.294 98.3418 108.355 97.8681C102.254 94.7895 96.8392 89.2018 94.4919 83.5632C94.0174 82.4237 93.3255 80.3575 92.9539 78.9719C92.3383 76.6746 92.2778 75.9875 92.267 71.1888C92.256 66.3158 92.306 65.7387 92.9407 63.412C93.7113 60.5862 94.9835 57.7658 96.5791 55.3456C98.0605 53.0984 101.826 49.3418 104.418 47.5259L106.576 46.014L105.737 44.7847C100.816 37.5716 91.1688 32.8218 80.7876 32.5018C78.9783 32.446 76.7873 32.5018 75.9189 32.6258Z" fill="black"/>
<path fill-rule="evenodd" clip-rule="evenodd" d="M77.3663 0.620566C72.0705 2.03039 67.4807 4.6603 63.5218 8.55318C59.5381 12.4705 57.1522 16.3847 55.6265 21.5056C55.0394 23.4768 54.9325 24.3602 54.9012 27.5018L54.8649 31.1862L55.9176 31.276C57.6111 31.4207 61.5445 30.7867 63.717 30.0193C66.9794 28.8663 69.2934 27.3049 72.5034 24.0905C78.9254 17.6596 81.64 11.7494 82.0279 3.35548L82.183 0L80.8931 0.0126324C80.1836 0.0194749 78.5967 0.293177 77.3663 0.620566ZM75.9189 32.6258C72.645 33.0932 68.1565 34.4596 60.7863 37.2319C57.9985 38.2806 57.215 38.4685 55.6505 38.4646C53.7185 38.4598 53.5435 38.4069 45.5222 35.4049C40.3316 33.4621 37.3348 32.8242 33.2846 32.7997C31.4029 32.7884 29.1527 32.9311 28.2843 33.1166C13.3109 36.3165 2.86368 48.3747 0.4001 65.301C-0.0683513 68.5199 -0.140198 76.0159 0.262986 79.6104C2.0402 95.4537 7.91769 110.056 17.5823 122.639C21.972 128.355 25.6391 131.713 29.4685 133.521C31.5771 134.517 31.8716 134.584 34.6004 134.682C38.0236 134.805 39.7868 134.399 46.3117 131.983C51.871 129.925 54.5396 129.391 58.4178 129.564C61.9293 129.721 63.9478 130.213 68.9682 132.133C73.4369 133.843 75.7554 134.435 78.7775 134.637C82.7983 134.905 86.2608 133.851 89.604 131.34C94.5611 127.616 102.25 116.951 106.577 107.795C108.184 104.395 110 99.7824 110 99.1006C110 98.8708 109.294 98.3418 108.355 97.8681C102.254 94.7895 96.8392 89.2018 94.4919 83.5632C94.0174 82.4237 93.3255 80.3575 92.9539 78.9719C92.3383 76.6746 92.2778 75.9875 92.267 71.1888C92.256 66.3158 92.306 65.7387 92.9407 63.412C93.7113 60.5862 94.9835 57.7658 96.5791 55.3456C98.0605 53.0984 101.826 49.3418 104.418 47.5259L106.576 46.014L105.737 44.7847C100.816 37.5716 91.1688 32.8218 80.7876 32.5018C78.9783 32.446 76.7873 32.5018 75.9189 32.6258Z" fill="black"/>
</svg>
