<svg width="123" height="123" viewBox="0 0 123 123" fill="none" xmlns="http://www.w3.org/2000/svg">
<path fill-rule="evenodd" clip-rule="evenodd" d="M50.2608 0.715C42.6074 2.097 34.1448 5.52748 27.1488 10.0834C22.2321 13.2856 13.4543 22.0701 10.1535 27.0926C5.35788 34.3894 2.17727 42.359 0.715502 50.7394C-0.208553 56.0381 -0.208553 66.8625 0.715502 72.1613C4.01625 91.0873 16.3889 107.819 33.4289 116.399C42.6271 121.03 50.8672 122.959 61.4494 122.956C78.2818 122.953 92.2469 117.372 104.246 105.855C113.947 96.5432 120.021 85.2162 122.29 72.2036C123.434 65.6429 123.148 52.4558 121.762 47.8754C121.523 47.0864 119.662 47.0345 91.5073 47.0345H61.5066V61.6906V76.3467H75.9181H90.3296L88.7837 78.8694C86.7857 82.1313 81.6056 87.2047 78.2001 89.2349C64.4277 97.4452 46.11 94.0921 36.2592 81.557C31.5774 75.5995 29.3112 69.0412 29.3112 61.4503C29.3112 53.9728 31.4097 47.652 35.7897 41.9371C41.9861 33.8517 51.3953 29.1863 61.5066 29.1863C70.3286 29.1863 77.4192 32.0805 84.3753 38.5205L87.2811 41.2105L97.5706 30.9123L107.86 20.6141L104.518 17.2461C96.1041 8.7672 84.4945 2.80049 72.2598 0.666947C67.0456 -0.242692 55.4216 -0.217224 50.2608 0.715ZM88.8966 100.133C94.5741 105.815 99.1117 110.464 98.9795 110.464C98.8474 110.464 94.0935 105.815 88.4161 100.133C82.7387 94.4505 78.201 89.8014 78.3332 89.8014C78.4653 89.8014 83.2192 94.4505 88.8966 100.133Z" fill="#3C79E6"/>
<path fill-rule="evenodd" clip-rule="evenodd" d="M50.2608 0.715C42.6074 2.097 34.1448 5.52748 27.1488 10.0834C22.2321 13.2856 13.4543 22.0701 10.1535 27.0926C5.35788 34.3894 2.17727 42.359 0.715502 50.7394C-0.208553 56.0381 -0.208553 66.8625 0.715502 72.1613C4.01625 91.0873 16.3889 107.819 33.4289 116.399C42.6271 121.03 50.8672 122.959 61.4494 122.956C74.4347 122.953 85.2662 119.739 95.9883 112.708L98.9959 110.736L88.5401 100.148L78.0848 89.5612L75.0719 90.8918C61.3581 96.9483 45.3238 93.0921 36.2592 81.557C31.5774 75.5995 29.3112 69.0412 29.3112 61.4503C29.3112 53.9728 31.4097 47.652 35.7897 41.9371C41.9861 33.8517 51.3953 29.1863 61.5066 29.1863C70.3286 29.1863 77.4192 32.0805 84.3754 38.5205L87.2811 41.2105L97.5706 30.9123L107.86 20.6141L104.518 17.2461C96.1041 8.7672 84.4945 2.80049 72.2598 0.666947C67.0456 -0.242692 55.4216 -0.217224 50.2608 0.715Z" fill="#007F7F"/>
<path fill-rule="evenodd" clip-rule="evenodd" d="M50.2608 0.715C42.6074 2.097 34.1448 5.52748 27.1488 10.0834C22.2321 13.2856 13.4543 22.0701 10.1535 27.0926C5.35788 34.3894 2.17727 42.359 0.715502 50.7394C-0.208553 56.0381 -0.208553 66.8625 0.715502 72.1613C4.01625 91.0873 16.3889 107.819 33.4289 116.399C42.6271 121.03 50.8672 122.959 61.4494 122.956C74.4347 122.953 85.2662 119.739 95.9883 112.708L98.9959 110.736L88.5401 100.148L78.0848 89.5612L75.0719 90.8918C61.3581 96.9483 45.3238 93.0921 36.2592 81.557C31.5774 75.5995 29.3112 69.0412 29.3112 61.4503C29.3112 53.9728 31.4097 47.652 35.7897 41.9371C41.9861 33.8517 51.3953 29.1863 61.5066 29.1863C70.3286 29.1863 77.4192 32.0805 84.3754 38.5205L87.2811 41.2105L97.5706 30.9123L107.86 20.6141L104.518 17.2461C96.1041 8.7672 84.4945 2.80049 72.2598 0.666947C67.0456 -0.242692 55.4216 -0.217224 50.2608 0.715Z" fill="#31AA52"/>
<path fill-rule="evenodd" clip-rule="evenodd" d="M50.2617 0.715C42.6084 2.097 34.1458 5.52748 27.1498 10.0834C22.233 13.2856 13.4553 22.0701 10.1545 27.0926C3.1537 37.7445 0 48.4155 0 61.4503C0 71.5674 1.75056 79.6099 5.81438 88.1638C7.613 91.9494 11.9329 98.9315 12.4769 98.9315C12.623 98.9315 17.4494 94.2204 23.2028 88.4627L33.6634 77.9944L32.2569 75.1281C28.2896 67.0432 28.2829 56.116 32.2405 47.7034C35.2232 41.3628 40.8698 35.6518 47.3003 32.4721C51.8821 30.2064 56.2933 29.1863 61.5075 29.1863C70.3295 29.1863 77.4202 32.0805 84.3763 38.5205L87.2821 41.2105L97.5716 30.9123L107.861 20.6141L104.519 17.2461C96.105 8.7672 84.4955 2.80049 72.2608 0.666947C67.0466 -0.242692 55.4226 -0.217224 50.2617 0.715Z" fill="#00FF00"/>
<path fill-rule="evenodd" clip-rule="evenodd" d="M50.2617 0.715C42.6084 2.097 34.1458 5.52748 27.1498 10.0834C22.233 13.2856 13.4553 22.0701 10.1545 27.0926C3.1537 37.7445 0 48.4155 0 61.4503C0 71.5674 1.75056 79.6099 5.81438 88.1638C7.613 91.9494 11.9329 98.9315 12.4769 98.9315C12.623 98.9315 17.4494 94.2204 23.2028 88.4627L33.6634 77.9944L32.2569 75.1281C28.2896 67.0432 28.2829 56.116 32.2405 47.7034C35.2232 41.3628 40.8698 35.6518 47.3003 32.4721C51.8821 30.2064 56.2933 29.1863 61.5075 29.1863C70.3295 29.1863 77.4202 32.0805 84.3763 38.5205L87.2821 41.2105L97.5716 30.9123L107.861 20.6141L104.519 17.2461C96.105 8.7672 84.4955 2.80049 72.2608 0.666947C67.0466 -0.242692 55.4226 -0.217224 50.2617 0.715Z" fill="#FBBD00"/>
<path fill-rule="evenodd" clip-rule="evenodd" d="M50.262 0.715C45.6149 1.554 39.1768 3.67505 34.4974 5.90806C28.363 8.83543 23.5346 12.3582 17.8207 18.0745L12.335 23.5617L22.8619 34.0968C28.6518 39.891 33.4988 44.6227 33.6329 44.6117C33.7675 44.6006 34.7424 43.4017 35.7996 41.9472C39.8091 36.4317 47.3058 31.5245 54.1466 29.9383C55.9299 29.5246 59.2421 29.1863 61.5078 29.1863C70.3298 29.1863 77.4205 32.0805 84.3766 38.5205L87.2824 41.2105L97.5719 30.9123L107.861 20.6141L104.519 17.2461C96.1053 8.7672 84.4958 2.80049 72.2611 0.666947C67.0469 -0.242692 55.4229 -0.217224 50.262 0.715Z" fill="#FF7F00"/>
<path fill-rule="evenodd" clip-rule="evenodd" d="M50.262 0.715C45.6149 1.554 39.1768 3.67505 34.4974 5.90806C28.363 8.83543 23.5346 12.3582 17.8207 18.0745L12.335 23.5617L22.8619 34.0968C28.6518 39.891 33.4988 44.6227 33.6329 44.6117C33.7675 44.6006 34.7424 43.4017 35.7996 41.9472C39.8091 36.4317 47.3058 31.5245 54.1466 29.9383C55.9299 29.5246 59.2421 29.1863 61.5078 29.1863C70.3298 29.1863 77.4205 32.0805 84.3766 38.5205L87.2824 41.2105L97.5719 30.9123L107.861 20.6141L104.519 17.2461C96.1053 8.7672 84.4958 2.80049 72.2611 0.666947C67.0469 -0.242692 55.4229 -0.217224 50.262 0.715Z" fill="#EB4132"/>
</svg>
