<svg width="133" height="124" viewBox="0 0 133 124" fill="none" xmlns="http://www.w3.org/2000/svg">
<path fill-rule="evenodd" clip-rule="evenodd" d="M45.9521 2.07261C27.1361 6.93061 10.9231 19.0376 3.86015 33.5046C0.559149 40.2646 0.452148 40.8606 0.452148 52.5046C0.452148 63.9746 0.60015 64.8376 3.67915 71.3376C8.17715 80.8346 19.4271 92.1656 29.6751 97.5216C29.7971 97.5856 28.5621 102.563 26.9311 108.582C23.5171 121.175 23.3421 123.026 25.5691 123.026C26.4581 123.026 33.1751 118.979 40.4961 114.033L53.8072 105.039L61.1361 105.659C74.8741 106.82 92.7132 103.043 105.196 96.3306C113.96 91.6176 124.42 80.8806 128.717 72.1856C132.407 64.7206 132.452 64.4826 132.452 52.5566C132.452 40.8536 132.348 40.2696 129.044 33.5046C121.905 18.8816 105.643 6.8356 86.5421 2.0196C75.7761 -0.694396 56.5711 -0.669395 45.9521 2.07261Z" fill="#492424"/>
<path fill-rule="evenodd" clip-rule="evenodd" d="M50.0271 1.05361C29.2481 5.40861 11.4801 17.8966 3.86015 33.5046C0.559149 40.2646 0.452148 40.8606 0.452148 52.5046C0.452148 63.9746 0.60015 64.8376 3.67915 71.3376C8.17715 80.8346 19.4271 92.1656 29.6751 97.5216C29.7971 97.5856 28.5621 102.563 26.9311 108.582C23.5171 121.175 23.3421 123.026 25.5691 123.026C26.4581 123.026 33.1751 118.979 40.4961 114.033L53.8072 105.039L61.1361 105.659C74.8741 106.82 92.7132 103.043 105.196 96.3306C113.96 91.6176 124.42 80.8806 128.717 72.1856C132.407 64.7206 132.452 64.4826 132.452 52.5566C132.452 40.8536 132.348 40.2696 129.044 33.5046C124.6 24.4016 114.119 13.9016 104.452 8.8686C92.0741 2.4226 85.2731 0.809606 68.9521 0.447607C60.9771 0.270607 52.4611 0.543606 50.0271 1.05361Z" fill="#402020"/>
<path fill-rule="evenodd" clip-rule="evenodd" d="M50.0267 1.05361C28.6327 5.53661 12.0247 17.2916 3.84575 33.7396C0.965748 39.5296 0.473747 41.6476 0.118747 49.7516C-0.517253 64.2976 3.07975 74.1106 12.7787 84.2896C17.1337 88.8596 25.0827 95.0836 29.6747 97.5196C29.7967 97.5846 28.5617 102.563 26.9307 108.582C23.1427 122.554 23.1277 123.447 26.7017 122.56C28.2147 122.185 30.3517 121.088 31.4517 120.122C32.5517 119.157 37.8777 115.478 43.2877 111.947L53.1237 105.526L65.2877 105.435C78.9087 105.332 82.5967 104.834 91.9517 101.835C103.967 97.9816 111.59 93.2316 120.137 84.2706C129.822 74.1176 133.421 64.2936 132.785 49.7516C132.43 41.6476 131.938 39.5296 129.058 33.7396C121.85 19.2446 108.866 8.90961 90.4517 3.01161C84.8287 1.21061 80.5987 0.705606 68.9517 0.447607C60.9767 0.270607 52.4607 0.543606 50.0267 1.05361Z" fill="#550000"/>
<path fill-rule="evenodd" clip-rule="evenodd" d="M48.4517 1.44861C25.0977 6.82961 7.01374 21.6436 1.35773 40.0256C-0.302265 45.4216 -0.481263 59.3856 1.04874 64.1266C5.45274 77.7706 15.9447 90.0086 29.6827 97.5276C29.8097 97.5976 28.5827 102.576 26.9557 108.59C23.1607 122.617 23.1457 123.443 26.7017 122.56C28.2147 122.185 30.3517 121.088 31.4517 120.122C32.5517 119.157 37.8777 115.478 43.2877 111.947L53.1237 105.526L65.2877 105.435C78.9087 105.332 82.5967 104.834 91.9517 101.835C104.178 97.9136 111.998 92.9836 120.421 83.8856C129.226 74.3746 132.958 65.0586 132.941 52.6266C132.923 39.0366 129.193 30.3516 118.952 20.0566C111.236 12.2996 102.404 6.93761 91.4517 3.36261C84.6507 1.14261 81.2797 0.700604 68.9517 0.408604C59.0377 0.174604 52.5537 0.502605 48.4517 1.44861Z" fill="#3B1E1E"/>
</svg>
